<svg width="204" height="48" viewBox="0 0 204 48" fill="none" xmlns="http://www.w3.org/2000/svg">
<g clip-path="url(#clip0_1752_349)">
<path d="M19.1878 6.88307V22.7376C19.1878 24.4536 17.7973 25.8455 16.0799 25.8455H0C0.817473 15.6278 8.96274 7.47666 19.1775 6.65771C19.1848 6.73283 19.1863 6.80648 19.1863 6.88307H19.1878Z" fill="#F4CE47"/>
<path d="M41.7604 25.8457H25.6804C23.9645 25.8457 22.5726 24.4538 22.5726 22.7379V6.88332C22.5726 6.80672 22.5755 6.73161 22.5814 6.65796C32.7961 7.4769 40.9429 15.6281 41.7589 25.8457H41.7604Z" fill="#F4CE47"/>
<path d="M19.1878 32.3371V48.1931C19.1878 48.2683 19.1848 48.3419 19.1789 48.417C8.96274 47.5966 0.817473 39.4484 0 29.2307H16.0799C17.7973 29.2307 19.1878 30.6212 19.1878 32.3371Z" fill="#F4CE47"/>
<path d="M41.7603 29.2305C40.9429 39.4482 32.7976 47.5964 22.5829 48.4153C22.5755 48.3402 22.574 48.2666 22.574 48.1914V32.3354C22.574 30.6194 23.966 29.229 25.6819 29.229H41.7618L41.7603 29.2305Z" fill="#F4CE47"/>
<path d="M62.2089 34.0999H55.0343V20.2073H61.8775C62.8732 20.2073 63.7098 20.3281 64.3874 20.5696C65.0649 20.8112 65.576 21.1882 65.9222 21.6993C66.2668 22.2105 66.4406 22.8674 66.4406 23.6686C66.4406 24.4699 66.2094 25.1725 65.7454 25.691C65.2814 26.2094 64.5877 26.5232 63.6612 26.6351V26.8428C64.7806 26.9253 65.6173 27.2861 66.1711 27.921C66.7234 28.5573 67.0003 29.3453 67.0003 30.285C67.0003 31.0598 66.8236 31.7329 66.4716 32.3073C66.1195 32.8818 65.5863 33.3237 64.8749 33.6345C64.162 33.9452 63.2738 34.1014 62.2104 34.1014L62.2089 34.0999ZM58.1451 23.0058V25.7013H61.6698C62.2502 25.7013 62.6714 25.6114 62.9351 25.4317C63.1972 25.252 63.3283 24.8926 63.3283 24.3536C63.3283 23.7865 63.1928 23.4197 62.9233 23.2548C62.6537 23.0898 62.2354 23.0058 61.6683 23.0058H58.1436H58.1451ZM58.1451 28.2318V31.3013H62.1058C62.6729 31.3013 63.1074 31.2115 63.4123 31.0318C63.7157 30.8521 63.8689 30.4382 63.8689 29.7872C63.8689 29.1361 63.7201 28.681 63.4226 28.5013C63.1251 28.3216 62.6861 28.2318 62.1058 28.2318H58.1451Z" fill="white"/>
<path d="M71.2704 34.0999H68.1595V20.2073H71.2704V34.1014V34.0999Z" fill="white"/>
<path d="M78.4877 34.3077C77.1605 34.3077 76.0411 34.0205 75.1279 33.4475C74.2162 32.8746 73.521 32.0512 73.0437 30.9804C72.5665 29.9096 72.3279 28.634 72.3279 27.1537C72.3279 25.6735 72.5974 24.4406 73.1365 23.3698C73.6756 22.299 74.4504 21.4697 75.4593 20.882C76.4683 20.2943 77.6775 20.0012 79.0886 20.0012C80.4997 20.0012 81.6323 20.2192 82.5721 20.6552C83.5118 21.0912 84.2232 21.7024 84.7078 22.4905C85.1909 23.2785 85.434 24.2256 85.434 25.3317V25.4348H82.1376V25.3524C82.1376 24.4671 81.9019 23.8559 81.432 23.5171C80.9622 23.1783 80.1594 23.0089 79.0267 23.0089C78.2387 23.0089 77.5965 23.1268 77.0987 23.361C76.6008 23.5966 76.2341 24.0149 75.9999 24.6159C75.7642 25.2168 75.6479 26.0638 75.6479 27.1567C75.6479 28.2496 75.7716 29.1201 76.0205 29.7284C76.2694 30.3367 76.6627 30.758 77.2018 30.9937C77.7409 31.2293 78.4464 31.3457 79.3169 31.3457C80.049 31.3457 80.647 31.2912 81.1109 31.1792C81.5734 31.0688 81.9196 30.8611 82.1479 30.5577C82.3762 30.2542 82.4896 29.8183 82.4896 29.2512V28.3174H85.4752V28.6281L82.821 31.9879H82.469C82.3305 32.3473 82.1066 32.7067 81.7944 33.0661C81.4836 33.4255 81.0579 33.723 80.5188 33.9572C79.9797 34.1914 79.3022 34.3092 78.4862 34.3092L78.4877 34.3077ZM85.4752 29.3101H78.6939V26.7178H85.4752V29.3101ZM85.4752 34.1001H82.5927V30.347L82.4896 30.0981V27.0919H85.4752V34.1015V34.1001Z" fill="white"/>
<path d="M97.7506 34.0999H90.576V20.2073H97.4192C98.4149 20.2073 99.2515 20.3281 99.9276 20.5696C100.605 20.8112 101.116 21.1882 101.462 21.6993C101.807 22.2105 101.981 22.8674 101.981 23.6686C101.981 24.4699 101.75 25.1725 101.286 25.691C100.822 26.2094 100.128 26.5232 99.2014 26.6351V26.8428C100.321 26.9253 101.157 27.2861 101.71 27.921C102.262 28.5573 102.539 29.3453 102.539 30.285C102.539 31.0598 102.362 31.7329 102.01 32.3073C101.658 32.8818 101.125 33.3237 100.414 33.6345C99.7022 33.9452 98.8141 34.1014 97.7491 34.1014L97.7506 34.0999ZM93.6868 23.0058V25.7013H97.2115C97.7918 25.7013 98.2131 25.6114 98.4768 25.4317C98.7389 25.252 98.8715 24.8926 98.8715 24.3536C98.8715 23.7865 98.736 23.4197 98.4664 23.2548C98.1969 23.0883 97.7786 23.0058 97.2115 23.0058H93.6868ZM93.6868 28.2318V31.3013H97.6475C98.2146 31.3013 98.6491 31.2115 98.954 31.0318C99.2574 30.8521 99.4106 30.4382 99.4106 29.7872C99.4106 29.1361 99.2618 28.681 98.9643 28.5013C98.6668 28.3216 98.2278 28.2318 97.6475 28.2318H93.6868Z" fill="white"/>
<path d="M109.923 34.308C108.527 34.308 107.333 34.0149 106.345 33.4272C105.357 32.8395 104.592 32.0102 104.053 30.9394C103.514 29.8686 103.245 28.6063 103.245 27.1554C103.245 25.7046 103.514 24.4423 104.053 23.3715C104.592 22.3007 105.357 21.4714 106.345 20.8837C107.333 20.296 108.525 20.0029 109.923 20.0029C111.321 20.0029 112.495 20.2975 113.49 20.8837C114.486 21.4714 115.249 22.3007 115.782 23.3715C116.314 24.4423 116.58 25.7046 116.58 27.1554C116.58 28.6063 116.314 29.8686 115.782 30.9394C115.25 32.0102 114.486 32.8409 113.49 33.4272C112.495 34.0149 111.306 34.308 109.923 34.308ZM109.923 31.3017C110.711 31.3017 111.35 31.181 111.841 30.9394C112.331 30.6978 112.69 30.2751 112.919 29.6741C113.147 29.0732 113.261 28.2322 113.261 27.154C113.261 26.0758 113.147 25.2186 112.919 24.6235C112.69 24.0299 112.331 23.6116 111.841 23.3686C111.35 23.127 110.711 23.0062 109.923 23.0062C109.135 23.0062 108.475 23.127 107.984 23.3686C107.494 23.6101 107.135 24.0284 106.906 24.6235C106.678 25.2186 106.565 26.0611 106.565 27.154C106.565 28.2469 106.678 29.0717 106.906 29.6741C107.135 30.2751 107.494 30.6978 107.984 30.9394C108.475 31.181 109.122 31.3017 109.923 31.3017Z" fill="white"/>
<path d="M124.169 34.308C122.773 34.308 121.58 34.0149 120.591 33.4272C119.603 32.8395 118.838 32.0102 118.299 30.9394C117.76 29.8686 117.491 28.6063 117.491 27.1554C117.491 25.7046 117.76 24.4423 118.299 23.3715C118.838 22.3007 119.603 21.4714 120.591 20.8837C121.58 20.296 122.771 20.0029 124.169 20.0029C125.567 20.0029 126.741 20.2975 127.736 20.8837C128.732 21.4714 129.495 22.3007 130.028 23.3715C130.56 24.4423 130.827 25.7046 130.827 27.1554C130.827 28.6063 130.56 29.8686 130.028 30.9394C129.497 32.0102 128.732 32.8409 127.736 33.4272C126.741 34.0149 125.552 34.308 124.169 34.308ZM124.169 31.3017C124.957 31.3017 125.596 31.181 126.087 30.9394C126.577 30.6978 126.937 30.2751 127.165 29.6741C127.393 29.0732 127.507 28.2322 127.507 27.154C127.507 26.0758 127.393 25.2186 127.165 24.6235C126.937 24.0299 126.577 23.6116 126.087 23.3686C125.596 23.127 124.957 23.0062 124.169 23.0062C123.381 23.0062 122.721 23.127 122.231 23.3686C121.74 23.6101 121.381 24.0284 121.152 24.6235C120.924 25.2186 120.811 26.0611 120.811 27.154C120.811 28.2469 120.924 29.0717 121.152 29.6741C121.381 30.2751 121.74 30.6978 122.231 30.9394C122.721 31.181 123.368 31.3017 124.169 31.3017Z" fill="white"/>
<path d="M135.014 34.0999H131.903V20.2073H135.014V34.1014V34.0999ZM144.366 34.0999H140.798L137.687 28.7502H133.416V25.744H137.646L140.901 20.2073H144.426L140.237 27.0917L144.364 34.1014L144.366 34.0999Z" fill="white"/>
<path d="M150.256 34.3077C148.901 34.3077 147.781 34.128 146.896 33.7687C146.011 33.4093 145.354 32.8775 144.927 32.172C144.498 31.4665 144.285 30.6033 144.285 29.5797V29.3101H147.334V29.5178C147.334 30.0289 147.416 30.4266 147.583 30.7109C147.749 30.9951 148.049 31.1955 148.484 31.3118C148.92 31.4296 149.559 31.4886 150.402 31.4886C151.244 31.4886 151.875 31.3928 152.165 31.1984C152.455 31.0054 152.601 30.6726 152.601 30.2027C152.601 29.8846 152.555 29.6297 152.465 29.4353C152.375 29.2424 152.178 29.0803 151.875 28.9478C151.57 28.8167 151.094 28.7018 150.444 28.6061L147.998 28.1701C147.113 28.0184 146.391 27.765 145.831 27.413C145.272 27.061 144.864 26.6176 144.607 26.0859C144.351 25.5542 144.224 24.9282 144.224 24.2094C144.224 23.4906 144.407 22.813 144.774 22.1767C145.14 21.5404 145.734 21.019 146.557 20.611C147.379 20.203 148.447 19.9998 149.761 19.9998C151.075 19.9998 152.163 20.2074 152.985 20.6213C153.807 21.0367 154.413 21.6067 154.8 22.3314C155.187 23.0575 155.38 23.8839 155.38 24.8089V24.9753H152.311V24.747C152.311 24.2639 152.234 23.8839 152.082 23.6069C151.931 23.33 151.661 23.1297 151.274 23.006C150.886 22.8823 150.347 22.8189 149.656 22.8189C148.771 22.8189 148.16 22.9191 147.821 23.1194C147.482 23.3197 147.313 23.6408 147.313 24.0842C147.313 24.3743 147.368 24.6056 147.479 24.7794C147.59 24.9517 147.787 25.0872 148.07 25.1844C148.353 25.2817 148.765 25.3848 149.304 25.4952L151.772 25.9725C152.739 26.1522 153.51 26.4394 154.084 26.8327C154.657 27.2274 155.069 27.7002 155.318 28.2526C155.567 28.8064 155.691 29.4206 155.691 30.0981C155.691 30.8316 155.511 31.518 155.152 32.1617C154.793 32.8039 154.218 33.3224 153.432 33.7171C152.644 34.1118 151.586 34.3077 150.259 34.3077H150.256Z" fill="white"/>
<path d="M159.628 34.0999H156.517V20.2073H159.628V34.1014V34.0999ZM167.259 28.5013H157.389V25.7219H167.259V28.5013ZM168.794 34.0999H165.683V20.2073H168.794V34.1014V34.0999Z" fill="white"/>
<path d="M173.502 34.1001H170.391V20.2075H173.502V34.1016V34.1001ZM180.987 23.0061H171.261V20.2061H180.987V23.0061ZM180.676 28.5016H171.261V25.7222H180.676V28.5016ZM180.987 34.1001H171.261V31.3001H180.987V34.1001Z" fill="white"/>
<path d="M185.32 34.0999H182.21V20.2073H185.32V34.1014V34.0999ZM192.495 34.0999H183.08V31.2999H192.495V34.0999Z" fill="white"/>
<path d="M196.358 34.1001H193.248V20.2075H196.358V34.1016V34.1001ZM203.679 23.0061H194.12V20.2061H203.679V23.0061ZM203.368 28.9582H194.12V26.1788H203.368V28.9582Z" fill="white"/>
</g>
<defs>
<clipPath id="clip0_1752_349">
<rect width="204" height="48" fill="white"/>
</clipPath>
</defs>
</svg>
